<svg width="96" height="64" viewBox="0 0 96 64" fill="none" xmlns="http://www.w3.org/2000/svg">
<g filter="url(#filter0_bi_101_4674)">
<path fill-rule="evenodd" clip-rule="evenodd" d="M73.7042 63.9302C85.5195 63.9302 95.0977 54.352 95.0977 42.5367C95.0977 30.7214 85.5195 21.1432 73.7042 21.1432C73.6643 21.1432 73.6244 21.1433 73.5845 21.1435C73.555 21.1437 73.5255 21.1439 73.496 21.1442C71.9331 9.25048 61.7571 0.0693359 49.4369 0.0693359C39.17 0.0693359 30.3923 6.44503 26.8471 15.4531C26.2928 15.4153 25.7335 15.396 25.1696 15.396C11.7672 15.396 0.902344 26.2609 0.902344 39.6633C0.902344 53.0658 11.7672 63.9306 25.1696 63.9306C25.1776 63.9306 25.1855 63.9306 25.1934 63.9306H73.7041L73.7042 63.9302Z" fill="url(#paint0_linear_101_4674)"/>
</g>
<defs>
<filter id="filter0_bi_101_4674" x="-35.0977" y="-35.9307" width="166.195" height="135.861" filterUnits="userSpaceOnUse" color-interpolation-filters="sRGB">
<feFlood flood-opacity="0" result="BackgroundImageFix"/>
<feGaussianBlur in="BackgroundImageFix" stdDeviation="18"/>
<feComposite in2="SourceAlpha" operator="in" result="effect1_backgroundBlur_101_4674"/>
<feBlend mode="normal" in="SourceGraphic" in2="effect1_backgroundBlur_101_4674" result="shape"/>
<feColorMatrix in="SourceAlpha" type="matrix" values="0 0 0 0 0 0 0 0 0 0 0 0 0 0 0 0 0 0 127 0" result="hardAlpha"/>
<feOffset dy="4.2"/>
<feGaussianBlur stdDeviation="9"/>
<feComposite in2="hardAlpha" operator="arithmetic" k2="-1" k3="1"/>
<feColorMatrix type="matrix" values="0 0 0 0 1 0 0 0 0 1 0 0 0 0 1 0 0 0 0.72 0"/>
<feBlend mode="normal" in2="shape" result="effect2_innerShadow_101_4674"/>
</filter>
<linearGradient id="paint0_linear_101_4674" x1="48" y1="0.0693359" x2="48" y2="63.9306" gradientUnits="userSpaceOnUse">
<stop stop-color="white"/>
<stop offset="1" stop-color="white" stop-opacity="0.68"/>
</linearGradient>
</defs>
</svg>
